<svg xmlns="http://www.w3.org/2000/svg" width="20mm" height="8mm" viewBox="0 0 1500 600" shape-rendering="geometricPrecision" text-rendering="geometricPrecision" image-rendering="optimizeQuality" fill-rule="evenodd" clip-rule="evenodd"><path d="M311 126c-39 16-114 35-173 45v5c64 1 140-4 188-11 11 5 19 5 24 2l-39-41zm-44 132c27-15 59-40 74-54 7 3 12-1 13-4l-48-25c-8 19-27 57-42 81l3 2zm-59-77c10 16 17 39 16 59 29 29 69-33-12-61l-4 2zm-60 7c8 14 15 35 14 54 29 29 70-31-10-56l-4 2zm-91-52c13 12 30 34 35 52 39 21 64-51-33-54l-2 2zm-28 80c13 11 27 31 30 49 36 24 66-45-27-52l-3 3zm107-16C72 333 72 333 64 346c-4 7-5 7-11 7H38v7c7 1 13 2 18 6 8 5 9 37 3 74 3 13 11 18 19 18 17 0 29-11 30-29 1-31-13-43-14-62 0-8 2-21 6-33 4-17 29-92 42-132l-6-2zm168 140h-44v-24c8-1 11-4 12-9l-7-1c25-8 51-19 70-29 8-1 12-1 15-5l-38-33-22 22H140l3 10h142c-11 10-24 23-38 34l-28-3v38H117l3 10h99v57c0 5-2 6-7 6-8 0-49-3-49-3v5c19 4 27 8 33 15 6 6 8 15 9 29 48-5 55-21 55-50v-59h96c5 0 9-2 10-6-15-14-40-34-40-34l-22 30zm357 91h-72V325h104c5 0 9-2 10-6-17-14-46-35-46-35l-24 31h-44v-91h114c5 0 9-2 10-5-17-15-44-35-44-35l-25 30h-55v-69c9-2 12-5 13-10l-59-6v85h-57c9-15 17-31 24-49 8 0 12-4 13-8l-59-17c-12 63-38 127-65 167l3 4c31-22 57-50 79-87h62v91H443l3 10h97v106H402l3 10h318c5 0 9-2 10-6-18-15-46-37-46-37l-26 33zm347-187v77H869v-77h139zM869 415v-84h139v84H869zm158-254H780l3 10h124c-1 21-4 46-6 63h-30l-45-18v240h7c18 0 36-10 36-14v-17h139v30h7c15 0 36-10 36-12V251c7-1 12-5 14-7l-40-32-20 22h-91c16-17 31-40 45-63h127c5 0 9-1 10-5-17-15-44-35-44-35l-25 30zm143-31c16 18 36 45 44 69 41 24 68-55-42-71l-2 2zm101 224c-15 8-28 17-42 24V244c8-1 12-4 14-6l-34-29-19 19h-47l3 10h43v145c0 8-2 11-17 20l29 44c5-3 9-8 12-15 27-31 49-60 60-75l-2-3zm188 4h-4c-7 23-13 39-18 46-3 3-6 5-12 5s-22 1-39 1h-48c-16 0-18-2-18-10V280h81v29h6c14 0 34-7 35-9V177c8-1 14-5 17-9l-42-33-21 23h-134l4 10h135v102h-77l-45-17v155c0 29 12 35 54 35h49c76 0 94-4 94-22 0-7-4-12-16-16l-1-47z" fill="#404040" fill-rule="nonzero"/></svg>